<svg width="24" height="24" viewBox="0 0 24 24" fill="none" xmlns="http://www.w3.org/2000/svg">
<circle cx="11.9966" cy="12" r="4" stroke="#101010" stroke-width="2"/>
<path d="M14.866 20C14.5345 20.607 13.8929 21 13.1797 21H10.8175C9.96293 21 9.21095 20.436 8.97163 19.6157C8.68313 18.6268 7.66648 18.0409 6.66619 18.2872L6.5585 18.3137C5.70937 18.5227 4.82289 18.1559 4.3698 17.4079L3.26556 15.5851C2.82235 14.8534 2.94353 13.9123 3.55718 13.3163C4.29941 12.5955 4.29967 11.4033 3.55714 10.6828C2.94336 10.0872 2.82248 9.14657 3.26572 8.41514L4.37092 6.59137C4.82397 5.84377 5.71004 5.47702 6.55891 5.68575L6.66793 5.71255C7.66781 5.95841 8.68383 5.3726 8.972 4.38407C9.21108 3.56391 9.96285 3 10.8172 3H13.1799C14.0342 3 14.7858 3.56398 15.0246 4.38413C15.3125 5.37256 16.3282 5.95847 17.3279 5.71272L17.438 5.68568C18.2869 5.477 19.173 5.84389 19.626 6.59162L20.7307 8.41528C21.1737 9.14665 21.0528 10.0871 20.4391 10.6826C19.6965 11.4032 19.6969 12.5955 20.4393 13.3162C21.0533 13.9122 21.1745 14.8536 20.731 15.5853L19.6263 17.4084C19.2731 17.9912 18.6567 18.3425 18 18.3702" stroke="#101010" stroke-width="2" stroke-linecap="round"/>
</svg>
